HIERARCHY
ROOT pelvis
{
	OFFSET 0.000000 0.000000 0.000000
	CHANNELS 6 Xposition Yposition Zposition Zrotation Xrotation Yrotation
	JOINT lfemur
	{
		OFFSET 11.446000 0.000000 0.000000
		CHANNELS 3 Zrotation Xrotation Yrotation
		JOINT ltibia
		{
			OFFSET 0.000000 -42.030400 0.000000
			CHANNELS 3 Zrotation Xrotation Yrotation
			JOINT lfoot
			{
				OFFSET 0.000000 -39.930200 0.000000
				CHANNELS 3 Zrotation Xrotation Yrotation
				JOINT ltoes
				{
					OFFSET 0.000000 0.000000 11.775800
					CHANNELS 3 Zrotation Xrotation Yrotation
					End Site
					{
					    OFFSET 0.000000 0.000000 5.000000
					}
				}
			}
		}
	}
	JOINT rfemur
	{
		OFFSET -11.446000 0.000000 0.000000
		CHANNELS 3 Zrotation Xrotation Yrotation
		JOINT rtibia
		{
			OFFSET 0.000000 -42.030400 0.000000
			CHANNELS 3 Zrotation Xrotation Yrotation
			JOINT rfoot
			{
				OFFSET 0.000000 -39.930200 0.000000
				CHANNELS 3 Zrotation Xrotation Yrotation
				JOINT rtoes
				{
					OFFSET 0.000000 0.000000 11.775800
					CHANNELS 3 Zrotation Xrotation Yrotation
					End Site
					{
					    OFFSET 0.000000 0.000000 5.000000
					}
				}
			}
		}
	}
	JOINT thorax
	{
		OFFSET 0.000000 11.255600 -5.000000
		CHANNELS 3 Zrotation Xrotation Yrotation
		JOINT head
		{
			OFFSET 0.000000 43.799300 0.000000
			CHANNELS 3 Zrotation Xrotation Yrotation
			End Site
			{
			    OFFSET 0.000000 5.000000 0.000000
			}
		}
		JOINT lclavicle
		{
			OFFSET 0.000000 39.863000 0.000000
			CHANNELS 3 Zrotation Xrotation Yrotation
			JOINT lhumerus
			{
				OFFSET 17.380600 4.958300 0.000000
				CHANNELS 3 Zrotation Xrotation Yrotation
				JOINT lradius
				{
					OFFSET 0.000000 -27.561300 0.000000
					CHANNELS 3 Zrotation Xrotation Yrotation
					JOINT lhand
					{
						OFFSET 0.000000 -26.933000 0.000000
						CHANNELS 3 Zrotation Xrotation Yrotation
						End Site
						{
						    OFFSET 0.000000 -5.000000 0.000000
						}
					}
				}
			}
		}
		JOINT rclavicle
		{
			OFFSET 0.000000 39.863000 0.000000
			CHANNELS 3 Zrotation Xrotation Yrotation
			JOINT rhumerus
			{
				OFFSET -17.380600 4.958300 0.000000
				CHANNELS 3 Zrotation Xrotation Yrotation
				JOINT rradius
				{
					OFFSET 0.000000 -27.561300 0.000000
					CHANNELS 3 Zrotation Xrotation Yrotation
					JOINT rhand
					{
						OFFSET 0.000000 -26.933000 0.000000
						CHANNELS 3 Zrotation Xrotation Yrotation
						End Site
						{
						    OFFSET 0.000000 -5.000000 0.000000
						}
					}
				}
			}
		}
	}
}
MOTION
Frames: 12
Frame Time:	0.0333333
80.905200 61.590300 -0.718800 -3.047388 -7.212829 -100.236566 6.475975 -31.839424 17.861038 180.000037 75.105734 -180.000037 -0.000000 -6.942111 -18.650297 -0.000000 -1.710685 0.000000 -4.060405 -13.325342 1.622413 -180.000037 79.199695 -180.000037 -0.000000 -2.697202 -6.088757 0.000000 -29.566444 -0.000000 -15.931935 5.626975 -0.341212 -27.195486 56.482465 26.599869 1.323026 -0.000000 17.797919 154.555384 -37.420262 131.465667 180.000029 -31.649269 132.282779 5.745131 -3.800079 -0.000000 -21.666040 -0.000000 -23.455958 -163.144854 -39.614398 -133.078712 -180.000033 -36.145220 -117.819412 -40.403579 10.183972 -0.000000 
77.980900 58.725200 -0.704800 -3.586663 -7.006501 -100.705621 6.519190 -30.749595 17.003484 180.000037 70.158797 -180.000037 0.000000 -6.365951 -19.884622 -0.000000 -1.723139 -0.000000 -3.843251 -14.532235 2.736628 -180.000037 73.173801 180.000037 0.000000 6.160507 -4.815618 0.000000 -29.573264 -0.000000 -15.776657 5.635341 -0.477050 -28.662417 55.581329 27.223668 0.165337 -0.000000 20.730085 158.708173 -37.860724 142.945334 -180.000036 -26.291072 174.696385 5.742079 -3.801403 -0.000000 -22.185930 0.000000 -24.160256 -163.785606 -39.773229 -134.329676 -180.000025 -35.763785 -117.606822 -40.882531 10.345974 0.000000 
75.076500 55.495900 -0.607100 -3.807173 -7.053467 -100.965794 5.835052 -29.926699 15.702163 -180.000037 65.197511 -180.000037 0.000000 -5.766800 -20.586523 0.000000 -1.713421 -0.000000 -3.749611 -16.725046 4.574439 -180.000037 66.334205 180.000037 -0.000000 12.316355 -0.379756 -0.000000 -29.574169 0.000000 -16.216826 4.996063 -0.283068 -27.747685 55.813080 26.108799 0.612236 0.000000 19.183597 156.583352 -38.072746 132.460282 180.000032 -31.645891 131.207454 5.745230 -3.800033 -0.000000 -21.337208 0.000000 -23.304752 -163.606293 -39.320052 -133.319935 180.000031 -35.738704 -117.964787 -40.155049 10.099325 0.000000 
72.405300 52.052800 -0.412800 -3.682249 -7.090263 -101.001505 5.124988 -29.287290 14.469048 180.000037 60.162240 180.000037 0.000000 -5.642217 -21.820235 -0.000000 -1.699319 -0.000000 -4.021853 -18.908823 4.638875 -180.000037 59.771143 -180.000037 0.000000 16.009649 1.917782 -0.000000 -29.517533 -0.000000 -16.055904 5.531279 -0.868486 -27.642331 54.938615 25.699237 0.566742 0.000000 19.192460 155.314280 -36.410165 132.603569 -180.000027 -31.324882 133.285109 5.745143 -3.800071 -0.000000 -21.731809 0.000000 -24.251488 -163.523390 -38.873151 -134.208326 -180.000035 -35.510216 -117.764809 -40.179151 10.106869 0.000000 
70.349300 48.288100 -0.299800 -1.992035 -7.412460 -100.556631 5.170997 -30.712577 13.962515 -180.000037 54.560404 180.000037 0.000000 -4.526976 -23.024249 -0.000000 -1.641909 -0.000000 -4.691948 -24.212723 3.205833 -180.000037 53.450649 -180.000037 -0.000000 16.133023 4.046018 0.000000 -29.517533 -0.000000 -18.188578 2.819611 0.908901 -19.891235 57.442609 20.754171 7.424381 0.000000 26.394024 158.422047 -53.050788 132.615221 180.000034 -28.247414 122.364272 5.745104 -3.800086 -0.000000 -16.205843 -0.000000 -20.089836 -162.140580 -35.853544 -129.119610 180.000034 -35.965261 -120.398801 -39.968212 10.038515 -0.000000 
69.129100 44.053000 0.132400 0.386090 -7.958462 -99.846142 4.730636 -34.629064 13.196931 -180.000037 47.888442 180.000037 0.000000 -2.508811 -22.992209 -0.000000 -1.599359 -0.000000 -5.015956 -32.465375 4.428731 -180.000037 49.059068 180.000037 0.000000 19.782210 11.675878 -0.000000 -29.517533 -0.000000 -16.723941 6.316489 -0.260505 -18.732578 52.171782 18.753460 1.224712 -0.000000 19.021848 156.963058 -34.925001 135.818540 -180.000034 -32.066599 122.070643 57.688863 -7.605847 -0.000000 -19.448042 0.000001 -26.907742 -163.780683 -36.720823 -137.151783 180.000029 -35.516155 -119.775527 -39.800606 9.981560 0.000000 
68.858100 39.404200 0.582200 3.682685 -8.550131 -97.129130 3.595081 -41.720521 10.964021 -180.000037 39.913020 -180.000037 -0.000000 1.371200 -23.415579 -0.000000 -1.554619 -0.000000 -5.967860 -41.628466 5.116869 -180.000037 41.104260 -180.000037 -0.000000 22.373511 17.580927 0.000000 -29.517533 -0.000000 -17.006092 8.796596 -0.966978 -12.456324 50.440906 14.113409 2.142280 0.000000 18.465805 158.183645 -35.518497 137.072209 -180.000035 -32.275347 124.497172 57.053502 -7.859494 -0.000000 -17.675895 0.000000 -27.458562 -164.090844 -36.054880 -138.069900 180.000029 -35.470395 -121.333533 -38.492031 9.538278 0.000000 
69.735300 34.944900 1.240000 8.711955 -9.090210 -94.449843 2.364662 -51.892580 8.258208 -180.000037 33.403629 180.000037 0.000000 9.066371 -27.371954 0.000000 -1.488532 0.000000 -9.728282 -54.789993 2.774669 -180.000037 31.947132 180.000037 -0.000002 23.004711 18.722879 -0.000000 -29.517533 0.000000 -16.474291 11.205418 -1.389071 -6.992394 49.767531 10.198329 3.444826 0.000000 16.755823 157.551320 -37.130995 135.817175 180.000036 -33.243688 126.471217 54.715125 -7.179876 0.000000 -17.371527 0.000000 -26.573130 -163.076731 -36.899833 -136.416994 -180.000036 -33.970637 -126.286455 -35.021292 8.359401 -0.000000 
70.748900 31.257900 2.121300 12.862304 -10.034074 -92.964028 0.548609 -61.648066 1.774969 -180.000037 29.381043 -180.000037 0.000001 19.904630 -38.642940 0.000000 -1.515635 0.000000 -15.536955 -65.524185 2.844144 180.000037 28.210499 -180.000037 0.000003 33.717438 27.228560 -0.000000 -29.517533 -0.000000 -16.049071 15.998264 -1.277542 -3.739391 49.251148 9.283710 5.169572 0.000000 14.768291 155.257946 -40.331750 133.900754 180.000029 -34.174870 128.430010 53.645028 -9.789111 -0.000000 -16.754596 -0.000000 -24.275889 -163.766928 -39.728078 -135.626064 180.000029 -33.866921 -130.837876 -34.465910 8.178294 -0.000001 
71.401700 28.778600 2.595200 14.896276 -11.264907 -91.515496 -2.270818 -69.619642 -7.316633 -180.000037 29.153093 -180.000037 0.000005 39.112467 -53.120897 -0.000000 -1.041779 0.000000 -22.443908 -71.404179 1.836553 180.000037 28.553388 -180.000037 0.000000 50.838944 36.100632 -0.000000 -29.517533 0.000000 -15.976426 24.076925 -0.065737 0.418723 49.416376 6.913626 6.817668 -0.000000 11.825568 156.226634 -47.381078 136.246516 180.000037 -38.236262 123.403738 55.072014 -5.512633 -0.000000 -15.694049 -0.000000 -18.417495 -163.421213 -43.992080 -132.755981 -180.000034 -36.319569 -130.083244 -33.894892 7.990160 -0.000000 
71.655500 27.128200 3.179200 18.503097 -12.581947 -90.398400 -10.620314 -76.162342 -17.467873 -180.000037 31.313960 -180.000037 -0.000003 58.545513 -23.849392 0.000000 -0.978396 -0.000000 -37.311351 -76.559831 -12.940738 -180.000037 27.123297 180.000037 0.000003 57.754026 30.646317 -0.000000 -29.517533 -0.000000 -15.567143 31.549965 1.283634 5.136902 47.269787 4.218885 9.690941 -0.000000 5.925952 152.136612 -55.910315 139.123707 -180.000030 -41.472621 149.868010 42.628255 -7.486475 0.000000 -15.509758 0.000000 -11.132078 -160.850733 -52.737608 -134.875075 180.000033 -38.195857 -146.827582 -24.548636 4.816741 -0.000000 
70.766600 26.592000 4.211100 22.627762 -16.599726 -92.462840 -15.348388 -79.684444 -15.011689 180.000037 33.191894 180.000037 0.000003 67.805142 -19.857712 -0.000000 -0.953922 -0.000000 -61.179286 -81.066974 -34.457053 -180.000037 25.493531 -180.000037 -0.000004 57.832969 26.022022 -0.000000 -29.517533 -0.000000 -18.596883 39.914990 -0.158100 0.354326 39.380232 9.985939 8.747799 0.000000 6.269574 153.211238 -62.159428 150.442272 -180.000037 -55.452359 169.284857 34.813723 -6.537142 -0.000001 -17.997952 -0.000000 -2.365708 -165.830212 -63.254402 -153.003131 -180.000035 -48.640388 -162.209738 -19.702860 3.188263 -0.000000 
